<?xml version="1.0" encoding="utf-8"?>
<svg xmlns="http://www.w3.org/2000/svg" viewBox="0 0 500 500">
  <path d="M 165.784 1.213 C 169.246 1.224 172.705 1.191 176.166 1.154 C 178.397 1.152 180.629 1.152 182.859 1.158 C 184.389 1.137 184.389 1.137 185.948 1.118 C 193.558 1.201 198.847 3.034 205.355 6.308 C 206.601 6.905 206.601 6.905 207.871 7.515 C 218.08 12.584 225.226 23.153 228.199 32.662 C 229.884 41.321 229.737 49.959 229.73 58.715 C 229.734 60.439 229.737 62.163 229.743 63.886 C 229.753 68.606 229.756 73.328 229.757 78.049 C 229.76 83.147 229.768 88.244 229.779 93.341 C 229.797 104.48 229.805 115.618 229.812 126.756 C 229.815 133.716 229.82 140.674 229.827 147.632 C 229.844 166.908 229.857 186.183 229.861 205.459 C 229.861 207.308 229.861 207.308 229.861 209.193 C 229.861 210.429 229.864 211.665 229.864 212.939 C 229.864 215.443 229.865 217.945 229.865 220.449 C 229.866 222.313 229.866 222.313 229.866 224.213 C 229.871 244.338 229.895 264.464 229.927 284.588 C 229.958 305.265 229.975 325.94 229.977 346.615 C 229.979 358.218 229.985 369.822 230.011 381.425 C 230.03 391.305 230.036 401.185 230.026 411.064 C 230.021 416.102 230.022 421.14 230.042 426.176 C 230.058 430.795 230.057 435.412 230.039 440.031 C 230.037 441.695 230.043 443.359 230.053 445.023 C 230.165 461.756 227.514 474.674 214.089 487.266 C 212.981 488.116 211.873 488.967 210.73 489.844 C 209.511 490.837 208.292 491.829 207.035 492.851 C 196.879 499.77 184.623 499.554 172.176 499.458 C 169.347 499.44 166.519 499.458 163.687 499.479 C 138.88 499.517 120.085 492.976 102.006 478.587 C 99.203 476.094 99.203 476.094 96.452 473.149 C 94.102 470.655 91.833 468.742 88.957 466.713 C 82.158 461.751 75.788 456.43 69.641 450.886 C 68.677 450.048 67.712 449.211 66.718 448.348 C 62.749 443.181 62.239 437.469 61.13 431.449 C 59.734 424.817 57.744 421.326 52.173 416.511 C 50.676 415.199 50.676 415.199 49.15 413.862 C 47.036 412.1 44.893 410.36 42.673 408.697 C 23.692 393.828 17.288 371.018 15.593 349.731 C 15.313 340.963 16.95 333.225 19.923 324.846 C 19.225 324.469 18.527 324.092 17.809 323.704 C 8.386 318.224 3.398 311.895 0.693 302.431 C -1.913 288.738 -1.703 274.854 6.319 262.542 C 11.397 257.193 17.343 253.131 25.298 251.514 C 36.084 250.596 47.159 250.363 56.204 256.096 C 57.071 257.247 57.935 258.398 58.828 259.583 C 61.133 261.956 62.403 262.861 65.939 263.616 C 69.753 263.86 73.498 263.892 77.321 263.855 C 79.432 263.874 79.432 263.874 81.586 263.892 C 86.087 263.929 90.586 263.917 95.086 263.903 C 99.536 263.919 103.983 263.946 108.433 263.971 C 111.296 263.987 114.16 264.001 117.022 264.009 C 127.262 264.052 137.382 264.418 147.576 265.263 C 147.576 262.238 147.576 259.213 147.576 256.096 C 145.002 256.08 145.002 256.08 142.378 256.065 C 136.006 256.018 129.632 255.943 123.259 255.86 C 120.503 255.826 117.746 255.802 114.99 255.786 C 111.024 255.761 107.059 255.709 103.092 255.65 C 101.862 255.648 100.634 255.647 99.366 255.646 C 93.781 255.536 90.613 255.38 85.775 252.831 C 80.727 248.22 79.726 245.34 79.866 239.244 C 80.761 234.76 83.244 232.809 87.109 229.743 C 91.867 228.391 96.01 228.57 100.939 228.736 C 101.889 228.762 102.839 228.79 103.815 228.818 C 106.84 228.905 109.866 229.001 112.891 229.098 C 114.944 229.159 116.998 229.22 119.05 229.279 C 124.082 229.427 129.109 229.584 134.14 229.743 C 132.6 228.238 131.06 226.735 129.52 225.231 C 128.663 224.394 127.805 223.556 126.922 222.694 C 125.775 221.584 124.616 220.478 123.39 219.431 C 120.88 219.315 118.366 219.28 115.852 219.278 C 114.31 219.277 112.768 219.276 111.181 219.274 C 109.556 219.278 107.931 219.282 106.257 219.288 C 104.653 219.282 103.05 219.278 101.396 219.274 C 99.848 219.276 98.299 219.277 96.704 219.278 C 94.575 219.28 94.575 219.28 92.402 219.282 C 88.646 219.424 85.348 219.691 81.735 220.576 C 78.522 223.471 78.522 223.471 75.688 227.093 C 74.626 228.351 73.561 229.609 72.497 230.866 C 70.922 232.774 69.349 234.684 67.794 236.604 C 63.28 241.777 58.057 244.283 50.83 245.784 C 36.699 246.991 24.883 246.417 13.457 238.623 C 0.459 224.69 2.405 206.392 4.216 189.501 C 5.897 178.924 9.391 170.45 17.237 162.139 C 19.187 159.556 21.052 156.986 22.863 154.335 C 23.34 153.671 23.818 153.008 24.31 152.327 C 29.274 145.058 29.523 138.144 29.172 129.899 C 28.476 111.866 35.515 101.687 49.485 88.806 C 56.57 82.098 60.053 77.653 60.947 68.501 C 62.501 55.562 69.793 48.872 80.69 40.282 C 84.088 37.593 87.305 34.769 90.552 31.946 C 92.538 30.273 94.525 28.603 96.515 26.933 C 97.632 25.978 98.751 25.021 99.901 24.038 C 119.823 7.102 138.058 1.096 165.784 1.213 Z M 127.42 39.536 C 127.982 45.119 130.776 47.276 135.482 50.995 C 139.287 55.861 139.196 60.181 138.171 65.891 C 134.876 70.063 132.692 71.295 127.084 72.765 C 120.921 72.765 115.371 71.935 109.952 69.328 C 109.013 67.82 108.112 66.292 107.265 64.745 C 103.833 63.815 103.833 63.815 100.547 63.599 C 99.151 64.797 97.785 66.019 96.431 67.252 C 95.667 67.93 94.905 68.607 94.116 69.307 C 92.187 71.583 92.187 71.583 92.526 74.508 C 94.204 78.169 96.111 79.236 99.957 81.359 C 101.171 82.042 102.384 82.724 103.633 83.428 C 106.76 85.101 109.904 86.745 113.058 88.377 C 119.829 91.947 125.341 95.785 127.42 102.557 C 128.681 109.543 126.05 113.036 121.422 118.496 C 120.4 119.681 120.4 119.681 119.359 120.89 C 117.995 122.789 116.639 124.694 115.326 126.619 C 121.922 136.507 121.922 136.507 131.452 143.807 C 135.919 143.959 140.378 144.091 144.85 144.098 C 149.743 144.245 152.487 144.633 156.338 147.276 C 157.437 148.399 158.537 149.523 159.67 150.682 C 161.335 152.188 163.012 153.687 164.698 155.179 C 166.551 156.854 168.402 158.531 170.251 160.207 C 171.168 161.032 172.083 161.859 173.027 162.711 C 181.303 170.206 189.361 177.561 195.95 186.202 C 196.393 186.202 196.836 186.202 197.293 186.202 C 199.612 168.834 199.612 168.834 194.727 152.539 C 191.266 150.061 187.696 148.123 183.857 146.097 C 181.71 144.199 179.637 142.24 177.642 140.225 C 173.242 135.952 168.675 132.187 163.591 128.517 C 159.372 125.411 155.384 122.096 151.607 118.598 C 150.909 117.979 150.209 117.357 149.489 116.718 C 146.876 113.025 147.048 109.694 147.135 105.511 C 147.139 104.259 147.139 104.259 147.141 102.98 C 147.153 100.26 147.194 97.541 147.24 94.823 C 147.259 92.954 147.279 91.085 147.296 89.216 C 147.349 84.586 147.432 79.958 147.526 75.327 C 147.573 72.961 147.606 70.593 147.64 68.226 C 147.698 64.414 147.793 60.607 147.912 56.797 C 147.931 55.694 147.95 54.592 147.969 53.456 C 148.23 47.413 148.841 43.864 154.295 39.536 C 158.586 37.707 163.062 37.964 167.731 38.391 C 171.577 39.818 173.703 40.828 175.957 43.847 C 179.418 51.363 177.2 60.994 176.579 68.941 C 176.297 72.597 176.06 76.255 175.825 79.916 C 175.691 81.792 175.534 83.669 175.355 85.544 C 174.021 97.008 174.021 97.008 178.659 107.417 C 182.017 110.274 185.467 112.708 189.231 115.161 C 191.562 117.359 191.562 117.359 193.345 119.314 C 194.205 120.213 195.064 121.111 195.95 122.036 C 196.393 122.036 196.836 122.036 197.293 122.036 C 197.513 111.29 197.679 100.541 197.781 89.793 C 197.83 84.801 197.896 79.812 198.002 74.821 C 198.104 69.999 198.161 65.177 198.185 60.354 C 198.203 58.52 198.236 56.685 198.288 54.851 C 198.889 42.967 198.889 42.967 192.701 32.68 C 183.284 25.176 168.928 27.553 156.795 27.874 C 144.716 28.519 135.945 32.268 127.42 39.536 Z M 67.204 112.082 C 61.976 117.559 61.009 122.891 61.254 129.779 C 61.779 133.933 63.068 136.803 65.609 140.369 C 72.194 144.723 77.197 145.257 85.357 145.722 C 89.911 146.276 92.154 147.787 95.171 150.682 C 97.437 154.018 97.87 155.989 97.775 159.848 C 96.135 164.322 94.164 166.182 89.796 169.015 C 82.209 170.556 76.609 169.766 69.306 168.012 C 67.882 167.691 67.882 167.691 66.428 167.363 C 62.532 166.475 58.688 165.52 54.86 164.431 C 53.509 165.714 52.166 167.004 50.83 168.298 C 50.081 169.017 49.332 169.734 48.561 170.473 C 46.527 172.342 46.527 172.342 46.798 174.743 C 47.806 174.844 48.814 174.941 49.852 175.044 C 63.313 176.619 74.299 179.506 82.87 188.897 C 84.313 190.653 85.713 192.437 87.109 194.222 C 89.741 194.688 89.741 194.688 92.82 194.508 C 94.02 194.479 95.221 194.451 96.459 194.419 C 100.931 194.204 105.399 193.934 109.867 193.65 C 111.473 193.565 113.079 193.481 114.735 193.395 C 119.247 193.16 119.247 193.16 123.185 192.437 C 128.399 191.802 132.05 191.784 136.452 194.508 C 142.46 198.97 147.718 204.009 152.952 209.118 C 154.367 210.437 154.367 210.437 155.812 211.781 C 158.062 213.905 160.212 216.082 162.357 218.285 C 163.411 219.325 164.467 220.364 165.554 221.436 C 166.66 222.547 167.766 223.657 168.907 224.802 C 169.93 225.822 170.951 226.844 172.004 227.895 C 176.032 232.827 175.961 237.669 175.967 243.554 C 175.972 244.927 175.977 246.301 175.981 247.716 C 175.977 249.932 175.977 249.932 175.972 252.194 C 175.972 253.742 175.974 255.292 175.977 256.84 C 175.978 260.088 175.976 263.336 175.968 266.584 C 175.961 270.703 175.966 274.824 175.974 278.944 C 175.98 282.146 175.977 285.351 175.974 288.553 C 175.972 290.798 175.977 293.042 175.981 295.287 C 175.96 302.144 175.822 308.993 175.409 315.843 C 175.342 317.015 175.275 318.189 175.205 319.396 C 173.812 325.22 168.974 328.193 163.701 331.72 C 161.904 333.076 160.111 334.436 158.326 335.804 C 157.445 336.448 156.563 337.093 155.655 337.759 C 153.793 339.124 151.95 340.507 150.123 341.903 C 136.718 352.132 136.718 352.132 126.518 351.713 C 119.616 350.579 115.045 347.349 111.128 342.426 C 107.783 337.83 104.793 333.09 101.89 328.284 C 97.456 328.284 93.022 328.284 88.454 328.284 C 91.43 338.44 95.638 347.733 100.578 357.3 C 102.976 362.225 104.016 365.582 101.89 370.678 C 99.104 374.018 96.951 375.959 92.275 377.138 C 87.534 377.764 83.923 377.762 79.298 376.623 C 71.015 369.56 68.918 356.969 65.946 347.619 C 65.522 346.304 65.097 344.99 64.661 343.636 C 63.626 340.43 62.6 337.221 61.579 334.012 C 58.369 333.248 58.369 333.248 54.86 332.866 C 51.783 334.98 49.906 336.733 48.143 339.741 C 46.511 355.925 51.79 373.35 61.411 387.364 C 65.921 391.776 70.177 394.169 76.842 395.259 C 84.945 395.731 90.09 393.983 96.584 389.925 C 99.155 387.903 100.76 386.035 102.562 383.498 C 104.479 380.937 105.388 380.009 108.776 378.964 C 113.732 378.33 117.15 378.428 121.879 379.917 C 126.827 383.765 128.528 387.397 129.351 393.022 C 128.381 399.65 124.47 403.398 118.492 407.385 C 116.635 408.552 114.768 409.708 112.891 410.854 C 111.969 411.431 111.048 412.007 110.096 412.602 C 107.372 414.301 104.634 415.982 101.89 417.657 C 100.512 418.499 100.512 418.499 99.105 419.357 C 96.901 420.702 94.694 422.044 92.484 423.386 C 93.024 429.836 95.561 432.557 100.547 437.135 C 107.078 436.66 109.635 434.27 113.984 430.261 C 119.347 427.974 125.632 428.386 131.452 429.115 C 135.451 431.016 135.965 432.295 138.171 435.99 C 139.429 441.465 138.836 445.209 135.819 450.169 C 133.179 452.796 130.819 454.751 127.42 456.614 C 127.847 460.138 128.167 461.869 131.257 464.327 C 132.291 464.878 133.326 465.428 134.39 465.996 C 135.408 466.556 136.424 467.117 137.471 467.692 C 146.239 471.645 154.549 472.078 164.288 472.442 C 165.648 472.514 167.007 472.588 168.407 472.664 C 177.259 473.013 184.387 472.883 191.376 467.596 C 197.257 462.244 198.444 458.465 198.208 451.242 C 198.211 450.279 198.212 449.317 198.213 448.325 C 198.207 445.17 198.144 442.016 198.081 438.859 C 198.066 436.662 198.053 434.463 198.047 432.266 C 198.016 426.499 197.935 420.733 197.847 414.968 C 197.763 409.077 197.727 403.186 197.687 397.295 C 197.601 385.748 197.462 374.203 197.293 362.657 C 196.659 363.129 196.026 363.601 195.371 364.087 C 194.534 364.703 193.697 365.323 192.832 365.962 C 191.59 366.881 191.59 366.881 190.323 367.818 C 187.888 369.533 187.888 369.533 184.012 371.689 C 178.517 375.157 175.031 378.098 173.869 383.884 C 173.232 392.632 174.15 401.346 174.954 410.066 C 175.152 412.713 175.342 415.359 175.526 418.006 C 175.789 421.758 176.06 425.506 176.384 429.254 C 176.886 435.1 177.28 440.944 177.456 446.801 C 177.511 448.431 177.511 448.431 177.569 450.093 C 176.897 454.9 174.454 457.893 170.251 461.055 C 164.859 462.854 159.76 462.932 154.295 461.199 C 148.418 456.754 148.139 452.444 147.697 446.12 C 147.636 444.889 147.575 443.66 147.513 442.39 C 147.432 441.102 147.349 439.815 147.265 438.487 C 147.009 434.362 146.789 430.235 146.569 426.107 C 146.401 423.392 146.231 420.677 146.058 417.962 C 145.658 411.424 145.326 404.885 145.047 398.343 C 144.946 396.019 144.832 393.697 144.708 391.374 C 144.551 388.379 144.442 385.385 144.349 382.387 C 144.296 381.536 144.244 380.683 144.19 379.808 C 144.078 373.212 146.737 369.683 151.858 365.093 C 154.416 363.091 157.019 361.13 159.67 359.22 C 161.929 357.327 164.17 355.42 166.388 353.491 C 170.975 349.502 175.529 345.6 180.58 342.033 C 184.701 339.096 188.082 335.88 191.437 332.311 C 193.263 330.574 193.263 330.574 197.293 328.284 C 197.735 324.903 197.913 321.756 197.923 318.368 C 197.939 317.342 197.957 316.315 197.976 315.258 C 198.028 311.849 198.049 308.44 198.064 305.031 C 198.084 302.665 198.104 300.298 198.125 297.931 C 198.161 292.962 198.18 287.992 198.188 283.023 C 198.203 276.663 198.285 270.303 198.384 263.945 C 198.451 259.052 198.466 254.158 198.47 249.266 C 198.481 246.923 198.507 244.579 198.554 242.234 C 199.379 229.897 199.379 229.897 194.942 218.575 C 192.242 216.556 189.679 215.166 186.544 213.701 C 184.371 211.605 182.262 209.462 180.244 207.256 C 176.332 202.999 172.257 199.159 167.731 195.367 C 161.056 189.181 154.917 182.63 148.81 176.033 C 147.959 175.229 147.109 174.426 146.232 173.598 C 145.346 173.598 144.459 173.598 143.546 173.598 C 142.215 171.328 142.215 171.328 140.858 169.015 C 139.287 168.999 137.716 168.983 136.097 168.964 C 134.017 168.912 131.937 168.856 129.856 168.8 C 128.823 168.793 127.79 168.787 126.724 168.779 C 121.172 168.596 118.693 168.331 114.225 165.296 C 113.258 164.254 112.291 163.214 111.296 162.139 C 110.459 161.245 109.624 160.35 108.76 159.428 C 85.226 131.478 85.226 131.478 85.278 124.494 C 86.283 119.426 89.579 115.02 92.484 110.578 C 92.928 109.821 93.372 109.065 93.828 108.286 C 83.206 104.992 76.092 105.851 67.204 112.082 Z M 36.049 203.39 C 35.951 206.086 35.935 208.784 35.964 211.482 C 35.978 212.96 35.989 214.439 36.002 215.963 C 36.017 217.107 36.033 218.251 36.049 219.431 C 38.709 219.809 41.37 220.187 44.11 220.576 C 46.404 218.228 48.664 215.865 50.912 213.487 C 51.566 212.824 52.217 212.162 52.889 211.48 C 56.715 207.422 56.715 207.422 57.374 202.4 C 56.451 200.014 56.451 200.014 54.86 198.806 C 48.339 198.277 40.924 199.23 36.049 203.39 Z M 32.017 279.013 C 31.907 281.376 31.831 283.74 31.766 286.103 C 31.718 287.419 31.673 288.735 31.624 290.091 C 32.205 295.728 34.58 298.538 39.49 302.215 C 45.908 306.146 51.178 305.72 58.892 305.367 C 61.062 305.019 63.228 304.637 65.384 304.226 C 74.471 302.772 83.436 302.63 92.642 302.763 C 94.562 302.78 96.482 302.773 98.402 302.743 C 114.361 302.484 114.361 302.484 119.97 306.702 C 122.387 309.618 124.275 312.461 126.077 315.679 C 127.158 317.261 128.249 318.836 129.351 320.405 C 130.044 321.492 130.738 322.58 131.452 323.7 C 133.135 322.655 134.814 321.603 136.491 320.548 C 137.894 319.671 137.894 319.671 139.325 318.776 C 140.274 318.132 141.224 317.489 142.201 316.825 C 143.198 316.222 144.197 315.619 145.225 314.998 C 148.936 310.647 148.147 306.296 147.912 301.069 C 147.888 300.052 147.865 299.035 147.838 297.987 C 147.775 295.48 147.682 292.977 147.576 290.471 C 137.839 289.331 128.267 289.169 118.442 289.167 C 113.665 289.162 108.89 289.128 104.113 289.097 C 98.065 289.063 92.017 289.037 85.969 289.039 C 81.05 289.039 76.131 289.012 71.212 288.968 C 69.345 288.954 67.479 288.953 65.609 288.963 C 63.006 288.974 60.402 288.946 57.798 288.918 C 56.319 288.913 54.838 288.908 53.315 288.905 C 47.183 287.744 45.344 284.072 42.096 279.802 C 41.431 279.164 40.766 278.525 40.079 277.868 C 35.005 277.525 35.005 277.525 32.017 279.013 Z" fill="#177235" style="stroke-width: 1;"/>
  <path d="M 315.881 1.493 C 316.976 1.485 318.073 1.48 319.202 1.473 C 321.525 1.462 323.848 1.455 326.171 1.451 C 329.686 1.438 333.202 1.403 336.717 1.367 C 363.037 1.221 381.759 8.458 400.702 23.938 C 402.97 25.868 405.236 27.798 407.499 29.732 C 410.025 31.881 412.566 34.006 415.136 36.117 C 437.09 54.263 437.09 54.263 438.146 69.505 C 438.776 77.225 442.218 82.884 448.985 88.091 C 459.744 96.931 468.026 106.839 470.067 119.744 C 470.059 122.574 469.952 125.396 469.841 128.224 C 469.482 138.512 469.378 146.659 476.784 155.264 C 477.821 156.6 478.857 157.938 479.89 159.275 C 480.64 160.22 481.388 161.165 482.158 162.139 C 482.158 162.896 482.158 163.652 482.158 164.431 C 483.046 164.431 483.932 164.431 484.846 164.431 C 496.404 182.787 499.659 206.182 494.168 226.664 C 491.34 233.699 486.602 238.773 479.267 242.781 C 468.337 247.233 454.31 247.537 442.688 244.781 C 432.295 240.698 425.142 230.788 419.787 222.542 C 415.515 218.592 407.554 219.213 401.547 218.916 C 398.465 218.817 395.381 218.727 392.298 218.643 C 390.759 218.551 389.219 218.46 387.632 218.367 C 378.631 218.16 378.631 218.16 371.164 222.037 C 368.481 224.895 366.109 227.745 363.913 230.889 C 364.799 230.51 365.686 230.132 366.6 229.743 C 372.658 229.32 378.731 229.157 384.805 228.979 C 387.823 228.884 390.837 228.766 393.855 228.647 C 395.781 228.587 397.705 228.528 399.631 228.471 C 401.381 228.414 403.129 228.355 404.931 228.295 C 409.952 228.62 412.351 229.458 416.317 232.035 C 419.929 236.622 420.098 241.591 419.005 246.93 C 416.702 250.449 413.887 253.124 409.599 254.95 C 407.734 255.085 405.86 255.154 403.99 255.186 C 402.832 255.209 401.677 255.232 400.485 255.255 C 398.61 255.284 398.61 255.284 396.697 255.314 C 394.779 255.349 394.779 255.349 392.823 255.386 C 388.729 255.461 384.636 255.528 380.542 255.596 C 377.77 255.646 374.999 255.694 372.226 255.745 C 365.425 255.868 358.623 255.984 351.819 256.096 C 351.819 259.122 351.819 262.147 351.819 265.263 C 352.886 265.185 353.954 265.107 355.055 265.026 C 365.372 264.302 375.634 263.896 385.984 263.755 C 387.48 263.732 388.977 263.708 390.519 263.682 C 395.226 263.609 399.935 263.541 404.643 263.473 C 407.865 263.423 411.087 263.374 414.311 263.323 C 422.144 263.202 429.982 263.085 437.817 262.971 C 438.2 262.267 438.582 261.56 438.976 260.833 C 441.777 256.351 445.856 254.291 451.253 252.372 C 464.186 249.79 475.353 250.856 486.903 256.455 C 494.915 261.125 496.858 267.434 498.903 275.186 C 501.553 289.189 500.528 304.311 491.061 316.325 C 487.686 320.22 483.997 323.068 479.472 325.992 C 479.778 326.924 480.084 327.856 480.4 328.816 C 487.316 352.325 481.484 377.59 467.026 398.317 C 462.086 404.402 455.638 409.454 449.348 414.515 C 440.375 421.88 438.586 428.621 437.312 439.039 C 436.448 442.979 435.266 445.409 432.441 448.594 C 431.556 448.594 430.668 448.594 429.754 448.594 C 429.405 449.263 429.055 449.934 428.698 450.623 C 426.952 453.356 425.06 455.185 422.49 457.385 C 421.158 458.527 421.158 458.527 419.797 459.69 C 418.871 460.472 417.944 461.253 416.989 462.058 C 415.6 463.256 415.6 463.256 414.181 464.479 C 413.292 465.234 412.405 465.989 411.488 466.767 C 410.675 467.458 409.862 468.147 409.024 468.86 C 406.911 470.364 406.911 470.364 404.224 470.364 C 403.884 471.021 403.545 471.676 403.194 472.353 C 395.023 485.142 377.664 492.664 362.023 496.946 C 351.961 499.288 342.474 499.713 332.119 499.608 C 329.207 499.583 326.297 499.608 323.384 499.637 C 306.765 499.666 295.617 496.077 283.291 486.405 C 271.683 475.727 270.406 463.084 270.488 449.172 C 270.478 447.381 270.468 445.591 270.455 443.803 C 270.424 438.907 270.426 434.014 270.435 429.119 C 270.439 423.83 270.411 418.543 270.39 413.254 C 270.352 402.903 270.339 392.552 270.342 382.202 C 270.342 373.784 270.334 365.368 270.322 356.951 C 270.276 330.468 270.264 303.986 270.276 277.503 C 270.285 256.63 270.244 235.759 270.179 214.887 C 270.115 193.438 270.086 171.986 270.094 150.537 C 270.097 138.503 270.086 126.466 270.038 114.432 C 269.997 104.186 269.991 93.94 270.024 83.691 C 270.042 78.468 270.043 73.246 270.004 68.022 C 269.968 63.231 269.975 58.441 270.02 53.65 C 270.026 51.925 270.017 50.201 269.992 48.477 C 269.783 33.603 274.399 22.254 285.978 10.891 C 289.594 8.618 289.594 8.618 293.452 6.595 C 294.729 5.914 296.007 5.236 297.32 4.535 C 303.497 1.545 308.961 1.525 315.881 1.493 Z M 304.79 34.954 C 302.566 39.793 301.768 43.82 301.776 49.004 C 301.771 50.399 301.768 51.794 301.763 53.233 C 301.773 54.728 301.782 56.22 301.793 57.759 C 301.794 59.323 301.794 60.885 301.794 62.45 C 301.797 65.719 301.808 68.989 301.825 72.259 C 301.848 76.433 301.854 80.606 301.853 84.78 C 301.853 88.006 301.861 91.233 301.87 94.461 C 301.876 96.742 301.879 99.024 301.881 101.306 C 301.923 107.945 302.016 114.354 303.446 120.89 C 304.933 119.621 306.416 118.348 307.88 117.06 C 310.166 115.161 310.166 115.161 313.173 113.04 C 319.159 108.578 322.992 105.355 323.589 98.404 C 323.569 96.022 323.486 93.64 323.345 91.26 C 323.322 89.991 323.299 88.722 323.273 87.415 C 323.188 83.388 323.021 79.368 322.845 75.344 C 322.722 71.304 322.613 67.265 322.518 63.223 C 322.454 60.717 322.371 58.211 322.264 55.707 C 322.225 54.57 322.185 53.434 322.145 52.264 C 322.102 51.269 322.061 50.274 322.016 49.25 C 322.296 45.974 323.231 43.617 324.945 40.682 C 330.221 37.904 336.37 37.516 342.413 38.391 C 346.19 40.447 348.472 41.851 350.477 45.267 C 350.672 46.93 350.792 48.599 350.875 50.269 C 350.956 51.826 350.956 51.826 351.038 53.414 C 351.09 54.54 351.142 55.666 351.194 56.827 C 351.252 57.989 351.31 59.151 351.37 60.35 C 351.492 62.818 351.61 65.286 351.725 67.755 C 351.902 71.496 352.087 75.239 352.274 78.981 C 352.39 81.383 352.507 83.787 352.623 86.189 C 352.677 87.294 352.732 88.401 352.788 89.539 C 352.936 92.733 353.052 95.926 353.164 99.119 C 353.218 100.249 353.275 101.379 353.333 102.543 C 353.368 103.652 353.403 104.762 353.439 105.903 C 353.478 106.896 353.517 107.889 353.56 108.911 C 352.769 114.526 348.217 118.125 343.758 122.036 C 342.657 123.021 341.557 124.007 340.424 125.021 C 335.817 129.045 331.199 132.995 326.036 136.501 C 321.96 139.439 318.726 142.643 315.284 146.104 C 312.214 148.99 308.861 151.424 305.304 153.86 C 303.257 155.233 303.257 155.233 302.102 157.556 C 301.989 159.635 301.959 161.715 301.97 163.796 C 301.976 165.03 301.979 166.262 301.984 167.534 C 301.995 168.825 302.007 170.117 302.017 171.449 C 302.025 172.752 302.03 174.053 302.037 175.393 C 302.053 178.614 302.073 181.836 302.102 185.056 C 307.936 180.14 313.601 175.098 319.235 170.017 C 320.187 169.159 321.139 168.3 322.119 167.416 C 328.448 161.668 334.387 155.81 339.998 149.54 C 343.981 145.754 346.504 145.027 352.486 144.679 C 356.013 144.623 359.541 144.574 363.068 144.537 C 369.08 143.637 370.831 142.035 374.663 138.077 C 375.461 137.298 376.259 136.519 377.082 135.715 C 377.753 134.981 378.423 134.249 379.113 133.494 C 379.801 132.762 380.489 132.028 381.197 131.275 C 383.141 128.266 383.332 126.572 382.724 123.182 C 380.764 120.659 380.764 120.659 378.105 118.455 C 372.826 113.782 371.855 110.607 371.402 104.078 C 372.653 98.253 376.047 93.852 381.659 90.512 C 383.261 89.663 384.876 88.831 386.503 88.02 C 387.299 87.604 388.093 87.185 388.909 86.755 C 394.39 83.896 399.98 81.198 405.569 78.494 C 406.399 71.676 406.399 71.676 402.459 65.964 C 399.007 63.437 399.007 63.437 394.818 62.453 C 394.218 63.006 393.616 63.557 392.997 64.127 C 383.44 72.641 383.44 72.641 376.127 72.833 C 370.972 72.577 368.297 71.831 363.997 69.257 C 360.59 65.118 358.973 61.728 359.882 56.724 C 362.878 51.447 366.237 47.382 371.975 44.121 C 371.535 40.725 371.224 38.891 368.327 36.449 C 367.342 35.907 366.357 35.368 365.34 34.811 C 364.385 34.264 363.432 33.718 362.448 33.155 C 351.689 28.648 341.285 27.455 329.395 27.435 C 328.061 27.393 326.728 27.351 325.353 27.307 C 316.419 27.261 310.152 28.488 304.79 34.954 Z M 406.911 108.286 C 408.42 111.553 409.994 114.716 411.783 117.881 C 413.901 122.647 414.616 125.012 413.63 130.056 C 410.958 134.531 407.594 138.551 404.224 142.661 C 402.994 144.22 401.768 145.783 400.544 147.347 C 399.253 148.984 397.96 150.621 396.666 152.257 C 396.054 153.035 395.443 153.811 394.814 154.611 C 386.316 165.191 386.316 165.191 380.037 167.869 C 375.451 168.059 370.876 168.209 366.287 168.261 C 363.06 168.319 363.06 168.319 358.538 169.015 C 356.761 171.155 356.761 171.155 355.85 173.598 C 355.06 173.923 354.268 174.248 353.452 174.583 C 348.986 176.543 346.285 179.782 343.169 183.051 C 342.233 184.014 342.233 184.014 341.276 184.998 C 339.409 186.922 337.553 188.854 335.695 190.785 C 331.428 195.209 327.011 199.335 322.258 203.39 C 318.178 207.172 314.154 210.994 310.166 214.847 C 309.493 215.406 308.82 215.965 308.127 216.54 C 302.005 221.911 300.922 225.848 301.016 233.204 C 300.998 234.208 300.979 235.212 300.961 236.246 C 300.911 239.545 300.922 242.839 300.938 246.138 C 300.926 248.443 300.91 250.747 300.895 253.051 C 300.87 257.874 300.877 262.695 300.903 267.518 C 300.934 273.685 300.879 279.848 300.802 286.016 C 300.752 290.772 300.753 295.528 300.768 300.285 C 300.769 302.559 300.753 304.83 300.72 307.102 C 300.085 319.276 300.085 319.276 304.472 330.5 C 307.128 332.771 309.752 334.506 312.853 336.305 C 313.906 337.438 314.957 338.572 316.044 339.741 C 316.764 340.497 317.484 341.254 318.227 342.033 C 319.114 342.033 320.001 342.033 320.914 342.033 C 320.914 342.79 320.914 343.545 320.914 344.325 C 322.982 345.842 325.127 347.284 327.297 348.693 C 336.457 354.914 344.036 362.106 351.819 369.533 C 353.15 370.667 353.15 370.667 354.507 371.824 C 354.838 374.142 354.838 374.142 354.825 377.028 C 354.825 378.11 354.825 379.192 354.825 380.307 C 354.8 382.075 354.8 382.075 354.774 383.878 C 354.76 385.715 354.76 385.715 354.745 387.59 C 354.592 400.098 354.003 412.583 353.153 425.072 C 352.906 428.831 352.704 432.59 352.5 436.351 C 352.339 438.765 352.178 441.18 352.014 443.595 C 351.934 445.264 351.934 445.264 351.851 446.964 C 351.442 452.249 351.143 454.751 347.188 459.003 C 342.522 461.989 340.787 462.503 335.107 461.915 C 334.056 461.811 333.005 461.708 331.92 461.601 C 328.977 461.199 328.977 461.199 324.945 460.053 C 322.537 456.896 321.915 454.384 321.905 450.659 C 321.899 449.721 321.894 448.782 321.891 447.815 C 321.902 446.805 321.914 445.794 321.928 444.754 C 321.933 443.692 321.938 442.631 321.944 441.538 C 322.052 433.856 322.694 426.276 323.555 418.634 C 323.88 415.421 324.197 412.209 324.512 408.995 C 324.746 406.83 325.015 404.666 325.319 402.505 C 327.314 389.956 327.314 389.956 322.981 378.243 C 317.759 372.719 311.634 367.849 304.79 363.803 C 304.347 363.803 303.903 363.803 303.446 363.803 C 301.79 385.079 301.84 406.35 302.075 427.661 C 302.101 430.174 302.116 432.688 302.132 435.201 C 302.162 439.642 302.253 444.082 302.354 448.523 C 302.362 449.83 302.37 451.139 302.378 452.486 C 302.536 459.919 302.536 459.919 306.285 466.431 C 315.567 473.104 323.137 473.134 334.855 472.586 C 336.851 472.537 336.851 472.537 338.887 472.489 C 347.828 472.131 354.708 470.562 362.569 466.927 C 363.795 466.379 363.795 466.379 365.045 465.817 C 368.845 463.924 370.454 462.818 371.808 459.193 C 371.862 458.343 371.918 457.491 371.975 456.614 C 370.728 455.835 369.481 455.055 368.195 454.252 C 363.608 450.96 361.587 447.827 359.882 442.866 C 359.882 438.023 360.692 435.557 363.745 431.48 C 369.863 428.035 375.581 428.285 382.724 429.115 C 386.462 430.145 386.462 430.145 389.443 431.407 C 389.888 432.187 390.33 432.966 390.787 433.771 C 391.942 436.252 391.942 436.252 395.237 437.135 C 399.023 437.382 399.023 437.382 402.545 435.417 C 406.39 431.775 406.704 429.371 406.911 424.532 C 405.152 420.033 403.277 419.768 398.429 417.585 C 392.015 414.501 386.229 411.19 380.542 407.201 C 379.222 406.277 377.9 405.353 376.541 404.4 C 372.475 400.887 370.687 398.191 370.567 393.233 C 370.699 392.384 370.831 391.533 370.967 390.659 C 371.144 389.38 371.144 389.38 371.324 388.076 C 372.025 385.385 372.986 383.346 374.663 380.991 C 380.788 378.088 386.435 378.057 393.14 379.487 C 397.055 381.435 397.263 383.168 398.849 386.719 C 404.939 391.624 411.216 394.891 419.677 395.243 C 425.812 395.014 429.158 393.753 433.786 390.157 C 446.39 377.37 451.972 359.869 451.51 343.367 C 451.186 340.238 450.451 337.865 448.567 335.159 C 444.597 332.443 444.597 332.443 439.161 332.866 C 438.934 333.529 438.708 334.189 438.474 334.872 C 435.714 342.832 432.687 350.706 429.585 358.576 C 429.103 359.806 428.62 361.039 428.121 362.307 C 427.234 364.569 426.346 366.831 425.455 369.091 C 424.645 371.149 423.839 373.204 423.036 375.262 C 418.06 377.566 413.858 378.041 408.255 377.553 C 403.041 375.986 400.74 374.796 397.589 370.894 C 394.3 362.477 400.261 354.517 404.262 346.905 C 407.421 340.74 409.457 334.895 410.942 328.284 C 406.601 327.669 403.168 327.321 398.849 328.284 C 394.872 331.675 392.213 335.59 389.443 339.741 C 385.219 345.635 381.51 349.971 373.319 351.799 C 364.63 352.566 359.379 349.183 352.758 344.728 C 348.26 341.386 344.043 337.882 339.916 334.209 C 336.312 331.091 332.448 328.31 328.479 325.54 C 324.728 322.388 323.676 319.936 323.261 315.428 C 323.258 313.97 323.257 312.512 323.254 311.008 C 323.249 310.202 323.244 309.394 323.24 308.562 C 323.229 305.899 323.237 303.236 323.244 300.574 C 323.242 298.719 323.24 296.863 323.238 295.008 C 323.233 291.121 323.239 287.236 323.25 283.349 C 323.268 278.374 323.258 273.399 323.241 268.423 C 323.232 264.592 323.234 260.762 323.241 256.931 C 323.244 255.096 323.241 253.264 323.234 251.428 C 323.229 248.862 323.239 246.295 323.254 243.728 C 323.257 242.268 323.258 240.809 323.261 239.305 C 323.868 232.485 327.019 228.609 332.083 223.441 C 333.613 221.863 333.613 221.863 335.174 220.254 C 338.383 217.139 338.383 217.139 342.135 214.024 C 345.413 211.741 345.413 211.741 345.101 209.118 C 345.988 209.118 346.874 209.118 347.789 209.118 C 349.943 207.303 349.943 207.303 352.156 204.964 C 353.005 204.135 353.852 203.303 354.728 202.448 C 357.154 200.059 357.154 200.059 358.989 197.812 C 362.071 194.483 364.062 193.222 369.079 192.616 C 373.669 192.574 378.15 192.763 382.724 193.077 C 384.125 193.169 385.529 193.263 386.971 193.358 C 388.986 193.502 388.986 193.502 391.038 193.65 C 393.006 193.789 393.006 193.789 395.012 193.931 C 397.533 194.123 400.05 194.352 402.56 194.621 C 406.092 194.869 408.845 194.963 412.286 194.222 C 415.691 191.535 417.892 188.387 420.347 185.056 C 429.016 177.664 440.745 175.396 452.597 174.743 C 451.849 173.444 451.101 172.143 450.33 170.805 C 449.909 170.074 449.488 169.343 449.054 168.589 C 447.33 166.528 447.33 166.528 444.288 165.756 C 439.383 165.525 435.225 166.573 430.595 167.797 C 423.935 169.545 417.968 170.582 410.942 170.161 C 407.834 168.441 407.834 168.441 405.569 166.723 C 404.681 166.723 403.793 166.723 402.881 166.723 C 400.73 156.64 400.73 156.64 403.888 151.254 C 408.879 146.524 412.301 145.806 419.508 145.168 C 424.922 144.484 428.018 144.017 432.693 141.515 C 437.222 135.124 438.579 128.543 437.06 121.176 C 435.197 115.485 432.208 111.349 426.071 108.25 C 418.902 105.418 413.992 105.602 406.911 108.286 Z M 441.847 199.952 C 441.019 205.638 443.527 208.384 447.474 212.842 C 448.519 214.053 449.564 215.264 450.64 216.512 C 453.64 219.589 453.64 219.589 457.537 220.559 C 458.569 220.565 459.599 220.571 460.659 220.576 C 464.386 217.399 463.793 215.338 463.852 210.91 C 463.908 208.926 463.908 208.926 463.967 206.903 C 463.731 203.35 463.731 203.35 461.059 201.254 C 457.593 199.791 454.933 199.346 451.085 199.092 C 449.917 199.005 448.751 198.914 447.548 198.824 C 444.485 198.611 444.485 198.611 441.847 199.952 Z M 459.316 277.868 C 457.002 279.826 457.002 279.826 455.117 282.379 C 451.477 286.939 451.477 286.939 448.567 288.179 C 445.989 288.312 443.408 288.37 440.827 288.398 C 439.203 288.416 437.578 288.435 435.906 288.456 C 434.138 288.471 432.371 288.486 430.552 288.502 C 428.72 288.522 426.888 288.544 425.057 288.566 C 419.232 288.634 413.409 288.694 407.583 288.753 C 400.868 288.822 394.151 288.892 387.436 288.972 C 384.763 289.002 382.086 289.026 379.413 289.051 C 370.142 289.158 361.023 289.495 351.819 290.471 C 349.816 302.766 349.816 302.766 353.271 314.398 C 357.083 318.212 361.636 321.027 366.6 323.7 C 371.38 318.793 375.167 313.616 378.988 308.146 C 381.567 305.15 382.621 304.124 386.756 303.074 C 390.422 302.877 393.928 302.807 397.589 302.86 C 398.636 302.869 399.686 302.876 400.765 302.885 C 408.867 302.978 416.959 303.239 425.052 303.577 C 426.702 303.644 426.702 303.644 428.384 303.712 C 436.14 304.079 436.14 304.079 439.161 305.367 C 446.297 305.973 452.159 306.127 458.644 303.361 C 463.961 299.282 467.134 296.027 467.603 289.749 C 467.613 288.641 467.622 287.532 467.629 286.39 C 467.649 285.276 467.668 284.164 467.687 283.018 C 467.717 279.96 467.717 279.96 464.691 277.868 C 462.916 277.868 461.143 277.868 459.316 277.868 Z" fill="#167235" style="stroke-width: 1;"/>
  <path d="M 349.132 289.326 C 352.518 293.658 352.322 297.329 352.491 302.358 C 352.762 310.404 352.762 310.404 355.85 317.971 C 354.52 317.971 353.189 317.971 351.819 317.971 C 351.819 317.215 351.819 316.458 351.819 315.679 C 350.933 315.679 350.046 315.679 349.132 315.679 C 349.132 306.982 349.132 298.286 349.132 289.326 Z" fill="#256E3E" style="stroke-width: 1;"/>
  <path d="M 436.473 330.574 C 439.577 330.574 442.681 330.574 445.879 330.574 C 445.076 330.812 444.271 331.048 443.442 331.29 C 439.415 333.45 438.336 336.089 436.473 339.741 C 435.587 339.363 434.699 338.985 433.786 338.595 C 433.786 336.705 433.786 334.814 433.786 332.866 C 434.671 332.866 435.559 332.866 436.473 332.866 C 436.473 332.111 436.473 331.354 436.473 330.574 Z" fill="#206E3A" style="stroke-width: 1;"/>
  <path d="M 87.109 34.954 C 87.109 38.391 87.109 38.391 85.766 40.682 C 84.879 40.682 83.991 40.682 83.079 40.682 C 82.746 41.368 82.414 42.053 82.07 42.759 C 80.17 45.594 78.172 46.909 75.015 48.704 C 75.015 45.267 75.015 45.267 77.662 42.674 C 79.345 41.3 79.345 41.3 81.062 39.895 C 82.184 38.969 83.308 38.043 84.465 37.089 C 85.337 36.385 86.21 35.681 87.109 34.954 Z" fill="#136930" style="stroke-width: 1;"/>
  <path d="M 148.92 254.95 C 149.363 254.95 149.806 254.95 150.263 254.95 C 150.3 257.219 150.325 259.485 150.346 261.754 C 150.363 263.018 150.378 264.28 150.395 265.582 C 150.263 268.701 150.263 268.701 148.92 269.847 C 146.681 269.893 144.44 269.895 142.201 269.847 C 142.201 268.712 142.201 267.578 142.201 266.409 C 144.419 266.409 146.636 266.409 148.92 266.409 C 148.92 262.628 148.92 258.847 148.92 254.95 Z" fill="#206C3D" style="stroke-width: 1;"/>
  <path d="M 456.628 402.762 C 457.72 404.696 457.72 404.696 457.973 407.344 C 454.864 410.496 454.864 410.496 451.253 413.074 C 450.367 413.074 449.48 413.074 448.567 413.074 C 448.567 411.939 448.567 410.805 448.567 409.636 C 449.453 409.636 450.34 409.636 451.253 409.636 C 451.253 408.881 451.253 408.123 451.253 407.344 C 452.14 407.344 453.028 407.344 453.941 407.344 C 453.941 406.589 453.941 405.832 453.941 405.053 C 454.827 405.053 455.715 405.053 456.628 405.053 C 456.628 404.297 456.628 403.541 456.628 402.762 Z" fill="#1D6D3B" style="stroke-width: 1;"/>
  <path d="M 416.317 191.931 C 416.317 195.367 416.317 195.367 416.317 195.367 L 416.317 191.931 Z M 414.974 195.367 C 414.974 196.125 414.974 196.88 414.974 197.66 C 411.426 197.66 407.879 197.66 404.224 197.66 C 404.224 196.904 404.224 196.147 404.224 195.367 C 408.327 194.245 410.872 194.245 414.974 195.367 Z" fill="#206C3A" style="stroke-width: 1;"/>
  <path d="M 83.079 248.076 C 84.852 248.076 86.626 248.076 88.454 248.076 C 89.339 249.21 90.227 250.344 91.141 251.514 C 92.027 251.892 92.914 252.27 93.828 252.659 C 90.721 253.447 90.721 253.447 87.109 253.804 C 84.674 252.301 84.674 252.301 83.079 250.368 C 83.079 249.611 83.079 248.855 83.079 248.076 Z" fill="#116E28" style="stroke-width: 1;"/>
  <path d="M 466.034 114.015 C 466.921 114.015 467.809 114.015 468.722 114.015 C 469.165 116.284 469.61 118.552 470.067 120.89 C 467.405 122.025 467.405 122.025 464.691 123.182 C 464.524 116.594 464.524 116.594 466.034 114.015 Z" fill="#297343" style="stroke-width: 1;"/>
  <path d="M 5.143 189.639 C 7.832 191.931 7.832 191.931 7.999 196.084 C 7.944 197.361 7.887 198.638 7.832 199.952 C 6.501 200.519 6.501 200.519 5.143 201.098 C 4.136 196.901 3.481 193.738 5.143 189.639 Z" fill="#20773D" style="stroke-width: 1;"/>
  <path d="M 29.331 281.304 C 32.778 285.716 31.793 287.705 30.674 292.763 C 29.787 292.763 28.901 292.763 27.987 292.763 C 28.429 288.982 28.873 285.2 29.331 281.304 Z" fill="#31784C" style="stroke-width: 1;"/>
  <path d="M 491.565 185.056 C 492.452 185.056 493.339 185.056 494.252 185.056 C 494.252 187.324 494.252 189.593 494.252 191.931 C 492.921 192.309 491.591 192.687 490.222 193.077 C 490.664 190.43 491.108 187.782 491.565 185.056 Z" fill="#25703B" style="stroke-width: 1;"/>
  <path d="M 93.828 393.595 C 93.828 394.351 93.828 395.107 93.828 395.887 C 92.289 396.135 92.289 396.135 90.721 396.387 C 86.999 396.99 86.999 396.99 83.079 398.178 C 83.079 397.044 83.079 395.909 83.079 394.741 C 87.013 393.622 89.738 393.5 93.828 393.595 Z" fill="#236B3A" style="stroke-width: 1;"/>
</svg>